<svg xmlns="http://www.w3.org/2000/svg" width="207.552" height="181.9" viewBox="0 0 207.552 181.9">
  <g id="noun_Christmas_Flake_2143466" data-name="noun_Christmas Flake_2143466" transform="translate(205.552 -1.162) rotate(90)">
    <path id="Tracé_54" data-name="Tracé 54" d="M90.588,202.552a3.808,3.808,0,0,0,4.031-4.031V188.04l8.868,4.434c2.016.806,4.434.4,5.24-1.612a3.558,3.558,0,0,0-1.612-5.24l-10.884-6.853V169.5l18.14,8.868a3.97,3.97,0,1,0,3.225-7.256L96.232,160.629v-9.271l8.868,4.434a3.877,3.877,0,0,0,3.628-6.853l-12.5-6.853v-5.24l24.186-14.109,4.837,2.822-.806,14.109c-.4,5.24,7.659,5.643,8.062.4l.4-10.078,8.062,4.837-2.015,23.783a4.051,4.051,0,1,0,8.062.806l1.612-20.155L156.7,143.7l-.806,14.109a3.722,3.722,0,0,0,3.628,4.031,3.977,3.977,0,0,0,4.031-3.628l.4-10.078,9.271,5.24a4.079,4.079,0,0,0,5.643-1.612,3.252,3.252,0,0,0-.806-5.24l-9.271-5.24,8.465-5.24a4.081,4.081,0,0,0-4.434-6.853l-11.69,7.659-8.062-4.434L169.6,121.125a4.081,4.081,0,1,0-4.434-6.853L145.41,127.978l-8.062-4.837,8.465-5.24a4.081,4.081,0,1,0-4.434-6.853l-11.69,7.659-5.24-2.822V88.07l4.837-2.822,11.69,7.659a4.081,4.081,0,0,0,4.434-6.853l-8.465-5.24,8.062-4.837,19.752,13.706a4.081,4.081,0,0,0,4.434-6.853L152.666,71.543l8.062-4.434,11.69,7.659a4.081,4.081,0,1,0,4.434-6.853l-8.062-5.643,9.271-5.24a4.15,4.15,0,1,0-4.031-7.256l-9.271,5.643-.4-10.078a3.835,3.835,0,0,0-7.659.4l.806,14.109-8.062,4.434-1.612-20.155a3.849,3.849,0,0,0-4.434-3.628,3.641,3.641,0,0,0-3.628,4.434l2.016,23.783-8.062,4.837-1.209-10.078a3.835,3.835,0,0,0-7.659.4l.806,14.109-5.24,2.822L96.232,66.706v-5.24l12.5-6.45c2.016-1.209,2.822-3.628,1.612-5.24-1.209-2.015-3.628-2.822-5.24-1.612l-8.868,4.031V42.923L118,32.442a4,4,0,0,0,2.016-5.24,4.635,4.635,0,0,0-5.643-2.016l-18.14,8.868V24.783l12.5-6.45c2.016-1.209,2.822-3.628,1.612-5.24-1.209-2.015-3.628-2.822-5.24-1.612l-8.868,4.031V5.031a4.031,4.031,0,0,0-8.062,0V15.512L79.3,11.078a3.558,3.558,0,0,0-5.24,1.612,4.463,4.463,0,0,0,1.612,5.643l12.5,6.45v9.271L70.03,25.186a3.97,3.97,0,1,0-3.225,7.256L88.573,42.923v9.271L79.7,47.76a3.558,3.558,0,0,0-5.24,1.612,3.558,3.558,0,0,0,1.612,5.24L88.17,61.466v5.24L63.983,80.814l-4.837-2.822.806-14.109a3.722,3.722,0,0,0-3.628-4.031,3.977,3.977,0,0,0-4.031,3.628l-.806,10.078-8.062-4.837,2.016-23.783A4.385,4.385,0,0,0,41.813,40.5a4.385,4.385,0,0,0-4.434,3.628L35.766,64.287,27.7,59.853l.806-14.109a3.722,3.722,0,0,0-3.628-4.031,3.977,3.977,0,0,0-4.031,3.628L19.642,55.419l-9.271-5.24A4.15,4.15,0,0,0,6.34,57.434l9.271,4.837-8.465,5.24a3.965,3.965,0,0,0-1.209,5.643,3.965,3.965,0,0,0,5.643,1.209l11.69-7.659,8.062,4.434L14.8,82.427a4.081,4.081,0,1,0,4.434,6.853L38.991,75.574l8.062,4.837-8.465,5.24A4.081,4.081,0,0,0,43.022,92.5l11.69-7.659,4.837,2.822v27.814L54.712,118.3l-11.69-7.659a4.081,4.081,0,1,0-4.434,6.853l8.465,5.24-8.062,4.837L19.239,113.869a4.081,4.081,0,1,0-4.434,6.853l16.527,11.287-8.062,4.434-11.69-7.256A3.965,3.965,0,0,0,5.937,130.4a3.965,3.965,0,0,0,1.209,5.643l8.465,5.24L6.34,146.52a4.463,4.463,0,0,0-1.612,5.643,4.463,4.463,0,0,0,5.643,1.612l9.271-5.643.4,10.078a3.486,3.486,0,0,0,4.031,3.628,3.486,3.486,0,0,0,3.628-4.031L26.9,143.7l8.062-4.434,1.612,20.155a3.977,3.977,0,0,0,4.031,3.628,4.143,4.143,0,0,0,4.031-4.434L42.619,134.83l8.062-4.837.4,10.078a3.486,3.486,0,0,0,4.031,3.628,3.486,3.486,0,0,0,3.628-4.031l-.806-14.109,4.837-2.822L86.96,136.846v5.24l-12.5,6.45c-2.016,1.209-2.822,3.628-1.612,5.24,1.209,2.016,3.628,2.822,5.24,1.612l8.868-4.434v9.271L65.193,170.707a3.97,3.97,0,0,0,3.225,7.256l18.14-8.868v9.271l-12.5,6.45c-2.016,1.209-2.822,3.628-1.612,5.24a3.64,3.64,0,0,0,5.24,1.612l8.868-4.434v11.287a3.808,3.808,0,0,0,4.031,4.031M92.2,73.962,116.387,88.07v27.814L92.2,129.993,68.014,115.884V88.07L92.2,73.962m-1.612,131.59a6.8,6.8,0,0,1-7.031-7.031v-6.433l-4.33,2.165a6.008,6.008,0,0,1-3.356.983,6.994,6.994,0,0,1-3.593-1.016,6.356,6.356,0,0,1-2.458-2.691A5.935,5.935,0,0,1,69,187.105a7.4,7.4,0,0,1,3.518-4.863l.082-.049.085-.044,10.872-5.611V173.9l-13.922,6.806-.1.041a7.3,7.3,0,0,1-2.722.524,6.815,6.815,0,0,1-6.418-4.21,7.275,7.275,0,0,1-.08-5.225,6.607,6.607,0,0,1,3.658-3.87l19.99-9.625v-2.532l-4.327,2.164a5.845,5.845,0,0,1-3.274.985,7.22,7.22,0,0,1-6-3.513,5.923,5.923,0,0,1-.953-4.618,7.4,7.4,0,0,1,3.518-4.863l.082-.049,10.957-5.655v-1.69L62.774,126.21l-1.737,1.013.691,12.1a6.241,6.241,0,0,1-1.36,4.948,6.722,6.722,0,0,1-4.967,2.425,6.177,6.177,0,0,1-.908.067,6.346,6.346,0,0,1-4.534-1.948,6.77,6.77,0,0,1-1.875-4.674l-.2-4.97-2.119,1.272,1.868,22.046v.127a7.715,7.715,0,0,1-1.851,5.1,6.785,6.785,0,0,1-5.18,2.335,7.346,7.346,0,0,1-4.736-1.791,6.464,6.464,0,0,1-2.293-4.7L32.34,144.13,30,145.416l.688,12.044a6.241,6.241,0,0,1-1.36,4.948,6.722,6.722,0,0,1-4.967,2.425,6.177,6.177,0,0,1-.908.067,6.346,6.346,0,0,1-4.534-1.948,6.77,6.77,0,0,1-1.875-4.674l-.2-4.933-5.131,3.123-.232.093a8.312,8.312,0,0,1-3.1.6,7.489,7.489,0,0,1-3.444-.823,7.05,7.05,0,0,1-2.787-2.635l-.124-.206-.089-.223a8.16,8.16,0,0,1-.377-4.966A7.049,7.049,0,0,1,4.8,143.948l.067-.039,4.858-2.746L5.582,138.6a6.759,6.759,0,0,1-3.192-4.491,7.4,7.4,0,0,1,.974-5.256,6.8,6.8,0,0,1,5.863-3.346,7.592,7.592,0,0,1,3.9,1.108l.039.024,10.2,6.331,2.247-1.236-12.432-8.49a6.753,6.753,0,0,1-3.127-4.452,7.4,7.4,0,0,1,.974-5.256,6.8,6.8,0,0,1,5.863-3.346,7.592,7.592,0,0,1,3.9,1.108l.085.051.082.057,18.16,12.6,2.18-1.308-4.265-2.64a6.759,6.759,0,0,1-3.192-4.491,7.4,7.4,0,0,1,.974-5.256,6.8,6.8,0,0,1,5.863-3.346,7.592,7.592,0,0,1,3.9,1.108l.1.063L54.8,114.777l1.746-1.018V89.39L54.8,88.372l-10.238,6.7a7.592,7.592,0,0,1-3.9,1.108,6.8,6.8,0,0,1-5.863-3.346,7.4,7.4,0,0,1-.974-5.256,6.759,6.759,0,0,1,3.192-4.491l4.265-2.64-2.18-1.308L20.868,91.8l-.085.051a7.592,7.592,0,0,1-3.9,1.108,6.8,6.8,0,0,1-5.863-3.346,7.4,7.4,0,0,1-.974-5.256,6.753,6.753,0,0,1,3.127-4.452l12.432-8.49-2.2-1.212L13.124,76.937a7.592,7.592,0,0,1-3.9,1.108A6.8,6.8,0,0,1,3.364,74.7a7.4,7.4,0,0,1-.974-5.256,6.759,6.759,0,0,1,3.191-4.49l3.971-2.458L4.873,60.053,4.8,60.007a7.076,7.076,0,0,1-2.641-9.759,7.657,7.657,0,0,1,2.623-2.637,7,7,0,0,1,3.583-1,6.91,6.91,0,0,1,3.515.973L17.2,50.592l.655-5.462A6.472,6.472,0,0,1,20.146,40.5a7.346,7.346,0,0,1,4.736-1.791,6.434,6.434,0,0,1,4.768,2.067,7.238,7.238,0,0,1,1.86,4.964v.086l-.7,12.306,2.339,1.286L34.4,43.717l.035-.173A7.605,7.605,0,0,1,36.875,39.3,7.418,7.418,0,0,1,41.813,37.5h.3l.291.058A7.605,7.605,0,0,1,46.65,40a7.418,7.418,0,0,1,1.791,4.938v.127L46.572,67.111l2.31,1.386L49.3,63.34a6.464,6.464,0,0,1,2.293-4.7,7.346,7.346,0,0,1,4.736-1.791,6.434,6.434,0,0,1,4.768,2.067,7.238,7.238,0,0,1,1.86,4.964v.086l-.706,12.358,1.737,1.013L85.17,64.983V63.214L74.747,57.308a6.445,6.445,0,0,1-3.508-3.84,6.745,6.745,0,0,1,.535-5.434,6.455,6.455,0,0,1,5.935-3.842,6.879,6.879,0,0,1,3.427.93l4.437,2.219V44.808l-19.99-9.625a6.607,6.607,0,0,1-3.658-3.871A7.275,7.275,0,0,1,62,26.088a6.816,6.816,0,0,1,6.418-4.21,7.3,7.3,0,0,1,2.722.524l.1.041L85.17,29.248V26.611L74.212,20.955l-.082-.049A7.048,7.048,0,0,1,70.9,16.542a8.16,8.16,0,0,1,.377-4.966,6.455,6.455,0,0,1,6.03-4.066,6.879,6.879,0,0,1,3.427.93l4.437,2.219V5.031a7.031,7.031,0,0,1,14.062,0v5.822l4.382-1.992a5.847,5.847,0,0,1,3.219-.948,7.22,7.22,0,0,1,6,3.513,5.923,5.923,0,0,1,.953,4.618,7.4,7.4,0,0,1-3.518,4.863l-.082.049L99.232,26.611v2.638l13.922-6.806.1-.041a7.315,7.315,0,0,1,2.729-.524,7.631,7.631,0,0,1,3.741.989,7.837,7.837,0,0,1,2.86,2.792l.124.206.089.223a7.275,7.275,0,0,1,.08,5.225,6.607,6.607,0,0,1-3.659,3.871l-19.99,9.625v2.727l4.382-1.992a5.847,5.847,0,0,1,3.219-.948,7.22,7.22,0,0,1,6,3.513,5.923,5.923,0,0,1,.953,4.618,7.4,7.4,0,0,1-3.518,4.863l-.082.049L99.232,63.293v1.69l21.245,12.393,2.078-1.119-.687-12.026a6.24,6.24,0,0,1,1.36-4.948,6.722,6.722,0,0,1,4.967-2.425,6.178,6.178,0,0,1,.908-.067,6.346,6.346,0,0,1,4.533,1.948,6.76,6.76,0,0,1,1.873,4.539l.639,5.326,2.488-1.493L136.787,45.3a6.877,6.877,0,0,1,1.493-5.477,6.65,6.65,0,0,1,4.87-2.312,6.755,6.755,0,0,1,5.7,1.978,6.689,6.689,0,0,1,1.978,4.505l1.234,15.431,2.339-1.286-.688-12.044a6.241,6.241,0,0,1,1.36-4.948,6.722,6.722,0,0,1,4.967-2.425,6.178,6.178,0,0,1,.908-.067A6.346,6.346,0,0,1,165.48,40.6a6.77,6.77,0,0,1,1.875,4.674l.2,4.933,5.131-3.123.232-.093a8.312,8.312,0,0,1,3.1-.6,7.489,7.489,0,0,1,3.444.823,7.049,7.049,0,0,1,2.787,2.636l.124.206.089.223a8.16,8.16,0,0,1,.377,4.966,7.049,7.049,0,0,1-3.231,4.364l-.067.039-5.13,2.9L178.5,65.4a6.751,6.751,0,0,1,3.11,4.441,7.4,7.4,0,0,1-.974,5.256,6.8,6.8,0,0,1-5.863,3.346,7.592,7.592,0,0,1-3.9-1.108l-.1-.063-10.181-6.67-2.2,1.212,12.432,8.49a6.753,6.753,0,0,1,3.127,4.452,7.4,7.4,0,0,1-.974,5.256,6.8,6.8,0,0,1-5.863,3.346,7.592,7.592,0,0,1-3.9-1.108l-.085-.051-.082-.057-18.16-12.6-2.18,1.308,4.266,2.641a6.759,6.759,0,0,1,3.191,4.49,7.4,7.4,0,0,1-.974,5.256,6.8,6.8,0,0,1-5.863,3.346,7.592,7.592,0,0,1-3.9-1.108l-.1-.063-10.137-6.642-1.746,1.018v24.3l2.09,1.125,10.3-6.743a7.592,7.592,0,0,1,3.9-1.108,6.8,6.8,0,0,1,5.863,3.346,7.4,7.4,0,0,1,.974,5.256,6.759,6.759,0,0,1-3.191,4.49l-4.266,2.641,2.18,1.308,18.242-12.657.085-.051a7.592,7.592,0,0,1,3.9-1.108,6.8,6.8,0,0,1,5.863,3.346,7.4,7.4,0,0,1,.974,5.256,6.753,6.753,0,0,1-3.127,4.452l-12.432,8.49,2.2,1.212,10.282-6.733a7.592,7.592,0,0,1,3.9-1.108,6.8,6.8,0,0,1,5.863,3.346,7.4,7.4,0,0,1,.974,5.256,6.759,6.759,0,0,1-3.192,4.491l-4.14,2.563,4.926,2.785a6.53,6.53,0,0,1,3.212,4.779,6.171,6.171,0,0,1-1.568,4.88,7.628,7.628,0,0,1-2.432,2.333,7,7,0,0,1-3.583,1,6.912,6.912,0,0,1-3.515-.973l-4.965-2.806-.2,5.119a6.455,6.455,0,0,1-2.294,4.766,7.346,7.346,0,0,1-4.736,1.791,6.435,6.435,0,0,1-4.768-2.067,7.238,7.238,0,0,1-1.86-4.964v-.086l.7-12.306-2.339-1.286L150,159.835l-.035.173a7.6,7.6,0,0,1-2.438,4.249,7.418,7.418,0,0,1-4.938,1.791h-.3l-.291-.058a7.605,7.605,0,0,1-4.248-2.438,7.418,7.418,0,0,1-1.791-4.938v-.127l1.868-22.046-2.119-1.272L135.5,140.3a6.927,6.927,0,0,1-2.489,4.906,7.283,7.283,0,0,1-4.6,1.6,7.133,7.133,0,0,1-5.244-2.207,6.721,6.721,0,0,1-1.711-5.128l.7-12.246-1.737-1.013L99.232,138.569v1.741l10.8,5.925a6.445,6.445,0,0,1,3.53,3.85,6.745,6.745,0,0,1-.535,5.434,6.455,6.455,0,0,1-5.935,3.842,6.879,6.879,0,0,1-3.427-.93l-4.437-2.219v2.547l19.6,9.615a6.607,6.607,0,0,1,3.647,3.866,7.275,7.275,0,0,1-.08,5.225,6.816,6.816,0,0,1-6.418,4.21,7.3,7.3,0,0,1-2.722-.524l-.1-.041-.1-.049L99.232,174.3v2.809l9.287,5.847a6.444,6.444,0,0,1,3.435,3.807,6.746,6.746,0,0,1-.536,5.436,5.987,5.987,0,0,1-2.506,2.778,6.931,6.931,0,0,1-3.452.883,8.4,8.4,0,0,1-3.086-.6l-.116-.046-4.638-2.319v5.627A6.8,6.8,0,0,1,90.588,205.552Zm-19.574-91.39L92.2,126.52l21.186-12.359V89.793L92.2,77.435,71.014,89.793Z" transform="translate(0 0)" fill="#fff"/>
  </g>
</svg>
