<svg xmlns="http://www.w3.org/2000/svg" width="117.677" height="105.804" viewBox="0 0 117.677 105.804">
  <path id="Icon_awesome-gift" data-name="Icon awesome-gift" d="M98.518,106.054H60.994V66.529h46.629V96.949a9.1,9.1,0,0,1-9.1,9.1Zm-33.524-4H98.518a5.1,5.1,0,0,0,5.1-5.1V70.529H64.994Zm-9.375,3.835H18.094a9.1,9.1,0,0,1-9.1-9.1V66.364H55.618ZM12.989,70.364V96.784a5.1,5.1,0,0,0,5.1,5.1H51.618V70.364Zm97.136-9.276H3.552A5.559,5.559,0,0,1-2,55.536V37.774a9.1,9.1,0,0,1,9.1-9.1h6.743a20.548,20.548,0,0,1-1.194-6.881A21.563,21.563,0,0,1,34.192.25,22.144,22.144,0,0,1,47.353,4.273c3.1,2.14,6.152,5.214,9.708,9.816,3.556-4.6,6.605-7.676,9.708-9.816A22.144,22.144,0,0,1,79.929.25a21.563,21.563,0,0,1,21.538,21.538,20.579,20.579,0,0,1-1.2,6.881h6.309a9.1,9.1,0,0,1,9.1,9.1V55.536A5.559,5.559,0,0,1,110.125,61.089ZM7.1,32.669a5.1,5.1,0,0,0-5.1,5.1V55.536a1.554,1.554,0,0,0,1.552,1.552H110.125a1.554,1.554,0,0,0,1.552-1.552V37.774a5.1,5.1,0,0,0-5.1-5.1H93.953l1.492-2.912A17.372,17.372,0,0,0,79.929,4.25a19.556,19.556,0,0,0-5.807.814,18.31,18.31,0,0,0-5.083,2.5C65.862,9.757,62.665,13.16,58.673,18.6l-1.612,2.2-1.612-2.2C51.457,13.16,48.259,9.757,45.082,7.565A18.31,18.31,0,0,0,40,5.064a19.556,19.556,0,0,0-5.807-.814A17.558,17.558,0,0,0,16.654,21.788a17.114,17.114,0,0,0,2.016,7.957l1.522,2.924Zm72.825,0H57.06l2.093-3.115c5.54-8.245,9.4-13.078,12.521-15.673a11.366,11.366,0,0,1,8.256-2.974,10.881,10.881,0,1,1,0,21.762Zm-15.329-4H79.929a6.881,6.881,0,1,0,0-13.762,7.417,7.417,0,0,0-5.7,2.049C71.846,18.94,68.752,22.7,64.6,28.669Zm-7.562,4H34.17a10.881,10.881,0,1,1,0-21.762,11.334,11.334,0,0,1,8.2,2.953c3.166,2.617,7.045,7.457,12.576,15.694ZM34.17,14.907a6.881,6.881,0,0,0,0,13.762H49.5c-4.147-5.963-7.256-9.725-9.676-11.725A7.387,7.387,0,0,0,34.17,14.907Z" transform="translate(2 -0.25)" fill="#fff"/>
</svg>
