<svg xmlns="http://www.w3.org/2000/svg" width="82.177" height="76.664" viewBox="0 0 82.177 76.664">
  <path id="Icon_ionic-ios-star" data-name="Icon ionic-ios-star" d="M40.838.875A5.236,5.236,0,0,1,45.825,4.4l0,.007,7.129,21.275H76.5a5.416,5.416,0,0,1,5.429,5.256,5.19,5.19,0,0,1-1.564,3.544,2.5,2.5,0,0,1-.2.192l-.5.431q-.084.073-.175.138L60.346,48.974l7.388,21.479a5.228,5.228,0,0,1-1.787,5.9,4.873,4.873,0,0,1-3.057,1.19,5.733,5.733,0,0,1-3.176-1.086L40.838,63,21.962,76.455l-.047.033a5.916,5.916,0,0,1-3.126,1.051,5.062,5.062,0,0,1-3.017-1.147l-.051-.038A5.274,5.274,0,0,1,13.871,73.7a5.168,5.168,0,0,1,.058-3.256l7.38-21.457L2.016,35.393q-.06-.042-.117-.087A5.159,5.159,0,0,1-.177,31.764a4.657,4.657,0,0,1-.073-.826,5.262,5.262,0,0,1,5.256-5.256H28.721L35.849,4.407l0-.007A5.236,5.236,0,0,1,40.838.875ZM41.089,6c-.041-.118-.2-.127-.25-.127s-.21.009-.25.127l-7.7,22.974a2.5,2.5,0,0,1-2.37,1.706H5.006a.268.268,0,0,0-.254.226,2.5,2.5,0,0,1,.04.276,1.249,1.249,0,0,0,.174.172L25.723,45.984a2.5,2.5,0,0,1,.924,2.857L18.654,72.08l-.007.021a.268.268,0,0,0,.1.27l.147.1a1.644,1.644,0,0,0,.2-.112L39.387,57.9a2.5,2.5,0,0,1,2.9,0L62.617,72.383a1.109,1.109,0,0,0,.162.094l.1-.076.045-.034a.232.232,0,0,0,.087-.278l0-.01L55.012,48.84A2.5,2.5,0,0,1,55.919,46l20.564-14.75.293-.253c.041-.048.074-.09.1-.125a.566.566,0,0,0-.378-.186H51.157a2.5,2.5,0,0,1-2.37-1.706Z" transform="translate(0.25 -0.875)" fill="#fff"/>
</svg>
