<svg xmlns="http://www.w3.org/2000/svg" xmlns:xlink="http://www.w3.org/1999/xlink" width="182" height="182" viewBox="0 0 182 182"><defs><clipPath id="a"><rect width="182" height="182" fill="none"/></clipPath></defs><g clip-path="url(#a)"><path d="M182,91A91,91,0,1,1,91,0a91,91,0,0,1,91,91" fill="#44c0b1"/><path d="M37.37,36.034h6.3l2.771,9.687a31.774,31.774,0,0,1,.658,3.146h.069s.312-1.944.658-3.146l2.737-9.687h6.339L50.844,54.242H43.536Z" fill="#fff"/><path d="M58.884,36.034h5.993V46.711c0,1.7.657,2.4,1.9,2.4,2.564,0,3.776-2.3,3.776-5.02V36.034H76.55V54.242H70.8V52.651a9.889,9.889,0,0,1,.069-1.132H70.8a6.158,6.158,0,0,1-5.577,3.147c-3.533,0-6.339-1.7-6.339-6.824Z" fill="#fff"/><path d="M97.927,42.893h.242v-.318c0-1.521-1.143-2.015-2.632-2.015a10.519,10.519,0,0,0-4.815,1.732l-2.078-4.314a13.324,13.324,0,0,1,7.482-2.368c5.022,0,8.035,2.793,8.035,7.424V54.242H98.689v-1.1a9.86,9.86,0,0,1,.069-1.131h-.069a5.54,5.54,0,0,1-5.057,2.652A5.759,5.759,0,0,1,87.57,48.8c0-5.3,7.585-5.9,10.357-5.9m-7.759-13.93h5.923l2.806,5.3H94.255ZM95.294,50a3.348,3.348,0,0,0,2.944-3.217v-.389h-.553c-1.906,0-4.088.565-4.088,2.086,0,.849.519,1.52,1.7,1.52" fill="#fff"/><path d="M116.013,28.963H122V46.711c0,1.732.312,2.333,1.662,2.333.381,0,.728-.035.728-.035v5.3a15.967,15.967,0,0,1-1.8.106c-3.186,0-6.581-.778-6.581-6.894Z" fill="#fff"/><path d="M136.451,42.893h.242v-.318c0-1.521-1.143-2.015-2.632-2.015a10.519,10.519,0,0,0-4.815,1.732l-2.078-4.314a13.322,13.322,0,0,1,7.481-2.368c5.023,0,8.036,2.793,8.036,7.424V54.242h-5.472v-1.1a9.86,9.86,0,0,1,.069-1.131h-.069a5.54,5.54,0,0,1-5.057,2.652,5.759,5.759,0,0,1-6.062-5.869c0-5.3,7.585-5.9,10.357-5.9M133.818,50a3.348,3.348,0,0,0,2.944-3.217v-.389h-.553c-1.906,0-4.088.565-4.088,2.086,0,.849.519,1.52,1.7,1.52" fill="#fff"/><path d="M61.906,89.227H47.7V79.207H87.566v10.02h-14.2v37.744H61.906Z" fill="#fff"/><path d="M89.925,79.206h12.437l8.248,27.19c.917,3,1.768,7.682,1.768,7.682h.13s.852-4.677,1.768-7.682l8.379-27.19H134.9L118.4,126.97H106.486Z" fill="#fff"/><path d="M37.831,62.928H144.172v75.4h-49.5v6.944c11.7.363,20.669,2.437,20.669,4.935,0,2.756-10.725.8-24.168.8s-24.515,1.964-24.515-.8c0-2.5,8.97-4.572,20.672-4.935v-6.944h-49.5v-75.4Zm4.49,4.49h97.365v66.417H42.321V67.418" fill="#fff" fill-rule="evenodd"/></g></svg>